<svg xmlns="http://www.w3.org/2000/svg" version="1.1" xmlns:xlink="http://www.w3.org/1999/xlink" xmlns:svgjs="http://svgjs.com/svgjs" width="1440" height="560" preserveAspectRatio="none" viewBox="0 0 1440 560"><g mask="url(&quot;#SvgjsMask1020&quot;)" fill="none"><rect width="1440" height="560" x="0" y="0" fill="rgba(30, 50, 102, 1)"></rect><path d="M1560 560L0 560 L0 334.41Q59.29 273.7, 120 332.98Q132.69 273.68, 192 286.37Q237.58 259.95, 264 305.53Q346.37 267.9, 384 350.27Q432.05 278.32, 504 326.37Q548.56 250.93, 624 295.49Q668.03 267.52, 696 311.55Q776.44 271.99, 816 352.42Q849.4 265.83, 936 299.23Q1014.21 257.44, 1056 335.65Q1080.17 287.82, 1128 312Q1182.15 294.15, 1200 348.3Q1228.13 256.44, 1320 284.57Q1385.25 229.82, 1440 295.07Q1505.33 240.39, 1560 305.72z" fill="rgba(6, 153, 237, 1)"></path><path d="M1488 560L0 560 L0 378.05Q41.31 299.37, 120 340.68Q161.78 310.46, 192 352.24Q267.03 307.27, 312 382.3Q355.84 354.14, 384 397.99Q426.19 320.18, 504 362.36Q573.62 311.98, 624 381.6Q672.04 357.64, 696 405.68Q714.31 351.99, 768 370.3Q791.85 322.14, 840 345.99Q932.18 318.18, 960 410.36Q988.69 367.05, 1032 395.73Q1041.57 333.3, 1104 342.86Q1169.05 287.91, 1224 352.96Q1280.75 337.7, 1296 394.45Q1362.13 340.59, 1416 406.72Q1422.14 340.87, 1488 347.01z" fill="rgba(24, 47, 93, 1)"></path><path d="M1536 560L0 560 L0 401.52Q36.7 366.22, 72 402.91Q156.94 367.86, 192 452.8Q215.33 404.13, 264 427.47Q308.52 352, 384 396.52Q468.38 360.89, 504 445.27Q557.77 379.04, 624 432.81Q702.18 391, 744 469.18Q776.5 381.68, 864 414.17Q939.28 369.45, 984 444.73Q1025.3 414.03, 1056 455.33Q1103.37 382.7, 1176 430.07Q1217.56 351.63, 1296 393.18Q1382.68 359.86, 1416 446.54Q1454.59 365.13, 1536 403.71z" fill="rgba(37, 70, 125, 1)"></path><path d="M1488 560L0 560 L0 489.7Q37.75 455.45, 72 493.21Q99.39 448.6, 144 475.99Q166.1 426.09, 216 448.19Q300.6 412.79, 336 497.4Q376.98 418.38, 456 459.36Q505.52 436.88, 528 486.41Q581.81 468.22, 600 522.03Q600.57 450.6, 672 451.17Q737.13 396.31, 792 461.44Q839.36 436.8, 864 484.16Q930.99 431.15, 984 498.15Q1029.24 471.39, 1056 516.64Q1073.02 461.66, 1128 478.68Q1200.66 431.34, 1248 504Q1281.97 417.97, 1368 451.94Q1433.6 397.54, 1488 463.14z" fill="rgba(53, 108, 177, 1)"></path><path d="M1488 560L0 560 L0 578.86Q17.2 524.06, 72 541.25Q117.18 514.43, 144 559.61Q185.06 528.67, 216 569.74Q247.06 480.8, 336 511.86Q416.85 472.71, 456 553.56Q523.8 501.36, 576 569.15Q609.23 482.38, 696 515.6Q744.4 492, 768 540.4Q844.09 496.49, 888 572.58Q916.05 528.63, 960 556.68Q986.13 510.8, 1032 536.93Q1062.79 495.72, 1104 526.51Q1175.98 478.49, 1224 550.47Q1275.28 529.75, 1296 581.04Q1326.59 539.63, 1368 570.21Q1420.22 502.43, 1488 554.65z" fill="rgba(255, 255, 255, 1)"></path></g><defs><mask id="SvgjsMask1020"><rect width="1440" height="560" fill="#ffffff"></rect></mask></defs></svg>