<svg xmlns="http://www.w3.org/2000/svg" version="1.1" xmlns:xlink="http://www.w3.org/1999/xlink" xmlns:svgjs="http://svgjs.com/svgjs" width="1440" height="560" preserveAspectRatio="none" viewBox="0 0 1440 560"><g mask="url(&quot;#SvgjsMask1000&quot;)" fill="none"><rect width="1440" height="560" x="0" y="0" fill="#0e2a47"></rect><path d="M729 67L728 483" stroke-width="10" stroke="url(#SvgjsLinearGradient1001)" stroke-linecap="round" class="Up"></path><path d="M742 6L741 180" stroke-width="8" stroke="url(#SvgjsLinearGradient1001)" stroke-linecap="round" class="Up"></path><path d="M949 544L948 747" stroke-width="8" stroke="url(#SvgjsLinearGradient1001)" stroke-linecap="round" class="Up"></path><path d="M521 437L520 716" stroke-width="6" stroke="url(#SvgjsLinearGradient1002)" stroke-linecap="round" class="Down"></path><path d="M1293 525L1292 678" stroke-width="6" stroke="url(#SvgjsLinearGradient1002)" stroke-linecap="round" class="Down"></path><path d="M231 531L230 855" stroke-width="6" stroke="url(#SvgjsLinearGradient1002)" stroke-linecap="round" class="Down"></path><path d="M213 267L212 -53" stroke-width="10" stroke="url(#SvgjsLinearGradient1001)" stroke-linecap="round" class="Up"></path><path d="M739 153L738 -151" stroke-width="6" stroke="url(#SvgjsLinearGradient1001)" stroke-linecap="round" class="Up"></path><path d="M260 294L259 435" stroke-width="10" stroke="url(#SvgjsLinearGradient1002)" stroke-linecap="round" class="Down"></path><path d="M622 245L621 96" stroke-width="8" stroke="url(#SvgjsLinearGradient1001)" stroke-linecap="round" class="Up"></path><path d="M118 352L117 62" stroke-width="8" stroke="url(#SvgjsLinearGradient1001)" stroke-linecap="round" class="Up"></path><path d="M946 336L945 -7" stroke-width="8" stroke="url(#SvgjsLinearGradient1002)" stroke-linecap="round" class="Down"></path><path d="M549 65L548 -253" stroke-width="10" stroke="url(#SvgjsLinearGradient1001)" stroke-linecap="round" class="Up"></path><path d="M1239 295L1238 510" stroke-width="10" stroke="url(#SvgjsLinearGradient1001)" stroke-linecap="round" class="Up"></path><path d="M1150 144L1149 -88" stroke-width="10" stroke="url(#SvgjsLinearGradient1001)" stroke-linecap="round" class="Up"></path><path d="M1256 373L1255 541" stroke-width="8" stroke="url(#SvgjsLinearGradient1002)" stroke-linecap="round" class="Down"></path><path d="M480 505L479 314" stroke-width="10" stroke="url(#SvgjsLinearGradient1001)" stroke-linecap="round" class="Up"></path><path d="M151 526L150 378" stroke-width="8" stroke="url(#SvgjsLinearGradient1002)" stroke-linecap="round" class="Down"></path><path d="M1297 328L1296 632" stroke-width="8" stroke="url(#SvgjsLinearGradient1001)" stroke-linecap="round" class="Up"></path><path d="M1079 556L1078 401" stroke-width="6" stroke="url(#SvgjsLinearGradient1001)" stroke-linecap="round" class="Up"></path><path d="M205 337L204 188" stroke-width="8" stroke="url(#SvgjsLinearGradient1001)" stroke-linecap="round" class="Up"></path><path d="M1430 93L1429 -240" stroke-width="8" stroke="url(#SvgjsLinearGradient1002)" stroke-linecap="round" class="Down"></path><path d="M1150 336L1149 683" stroke-width="6" stroke="url(#SvgjsLinearGradient1001)" stroke-linecap="round" class="Up"></path><path d="M1193 299L1192 458" stroke-width="8" stroke="url(#SvgjsLinearGradient1002)" stroke-linecap="round" class="Down"></path><path d="M638 244L637 61" stroke-width="8" stroke="url(#SvgjsLinearGradient1002)" stroke-linecap="round" class="Down"></path><path d="M1414 197L1413 563" stroke-width="10" stroke="url(#SvgjsLinearGradient1001)" stroke-linecap="round" class="Up"></path><path d="M1148 394L1147 62" stroke-width="10" stroke="url(#SvgjsLinearGradient1001)" stroke-linecap="round" class="Up"></path><path d="M1208 30L1207 174" stroke-width="6" stroke="url(#SvgjsLinearGradient1002)" stroke-linecap="round" class="Down"></path><path d="M679 205L678 -150" stroke-width="8" stroke="url(#SvgjsLinearGradient1002)" stroke-linecap="round" class="Down"></path><path d="M239 396L238 649" stroke-width="10" stroke="url(#SvgjsLinearGradient1001)" stroke-linecap="round" class="Up"></path><path d="M793 38L792 -324" stroke-width="8" stroke="url(#SvgjsLinearGradient1002)" stroke-linecap="round" class="Down"></path><path d="M496 295L495 -51" stroke-width="6" stroke="url(#SvgjsLinearGradient1002)" stroke-linecap="round" class="Down"></path><path d="M1211 136L1210 -243" stroke-width="8" stroke="url(#SvgjsLinearGradient1002)" stroke-linecap="round" class="Down"></path><path d="M200 265L199 676" stroke-width="8" stroke="url(#SvgjsLinearGradient1002)" stroke-linecap="round" class="Down"></path><path d="M703 187L702 -205" stroke-width="10" stroke="url(#SvgjsLinearGradient1002)" stroke-linecap="round" class="Down"></path><path d="M3 391L2 644" stroke-width="8" stroke="url(#SvgjsLinearGradient1001)" stroke-linecap="round" class="Up"></path></g><defs><mask id="SvgjsMask1000"><rect width="1440" height="560" fill="#ffffff"></rect></mask><linearGradient x1="0%" y1="100%" x2="0%" y2="0%" id="SvgjsLinearGradient1001"><stop stop-color="rgba(28, 83, 142, 0)" offset="0"></stop><stop stop-color="#1c538e" offset="1"></stop></linearGradient><linearGradient x1="0%" y1="0%" x2="0%" y2="100%" id="SvgjsLinearGradient1002"><stop stop-color="rgba(28, 83, 142, 0)" offset="0"></stop><stop stop-color="#1c538e" offset="1"></stop></linearGradient></defs></svg>